<?xml version="1.0" encoding="UTF-8"?>
<svg width="284px" height="175px" viewBox="0 0 284 175" version="1.1" xmlns="http://www.w3.org/2000/svg" xmlns:xlink="http://www.w3.org/1999/xlink">
    <!-- Generator: Sketch 63 (92445) - https://sketch.com -->
    <title>connect-androidap</title>
    <desc>Created with Sketch.</desc>
    <defs>
        <path d="M2.44326219,13.1172162 L3.84072313,9.25002874 L8.94716844,9.25002874 L10.2567388,13.1172162 L12.1727544,13.1172162 L7.48818406,0.206083425 L5.510645,0.206083425 L0.650293439,13.1172162 L2.44326219,13.1172162 Z M8.38466844,7.82620061 L4.34169969,7.82620061 L6.4247075,2.12209905 L8.38466844,7.82620061 Z M15.1346684,13.1172162 L15.1346684,8.18655218 C15.1346684,7.5713178 15.1742192,7.09817327 15.2533208,6.76711858 C15.3324223,6.43606389 15.5038091,6.11526311 15.7674809,5.80471624 C16.0956059,5.41799749 16.4764653,5.16018499 16.9100591,5.03127874 C17.1502934,4.95510686 17.4579106,4.91702093 17.8329106,4.91702093 C18.5711919,4.91702093 19.0809575,5.20998968 19.3622075,5.79592718 C19.5321294,6.14748968 19.6170903,6.6103803 19.6170903,7.18459905 L19.6170903,7.18459905 L19.6170903,13.1172162 L21.2254888,13.1172162 L21.2254888,7.0791303 C21.2254888,6.12991155 21.0965825,5.40041936 20.83877,4.89065374 C20.37002,3.95901311 19.4676763,3.4931928 18.1317388,3.4931928 C17.5223638,3.4931928 16.9686528,3.61330999 16.4706059,3.85354436 C15.9725591,4.09377874 15.5008794,4.48928655 15.0555669,5.0400678 L15.0555669,5.0400678 L15.0555669,3.7041303 L13.5526372,3.7041303 L13.5526372,13.1172162 L15.1346684,13.1172162 Z M26.7713872,13.4512006 C27.4217778,13.4512006 27.9989263,13.3222944 28.5028325,13.0644819 C29.0067388,12.8066694 29.4432622,12.3877241 29.8124028,11.8076459 L29.8124028,11.8076459 L29.8124028,13.1172162 L31.2362309,13.1172162 L31.2362309,0.162138113 L29.7157231,0.162138113 L29.7157231,4.91702093 C29.3583013,4.4775678 29.0389653,4.16995061 28.7577153,3.99416936 C28.2713872,3.68948186 27.6678716,3.53713811 26.9471684,3.53713811 C25.6463872,3.53713811 24.6458989,4.03957952 23.9457036,5.04446233 C23.2455083,6.04934514 22.8954106,7.23733343 22.8954106,8.60842718 C22.8954106,10.0732709 23.2791997,11.2466108 24.0467778,12.1284467 C24.8143559,13.0102826 25.7225591,13.4512006 26.7713872,13.4512006 Z M27.2635747,12.0713178 C26.3202153,12.0713178 25.6346684,11.7314741 25.2069341,11.0517866 C24.7791997,10.3720991 24.5653325,9.52834905 24.5653325,8.52053655 C24.5653325,7.3369428 24.8128911,6.44045843 25.3080083,5.83108343 C25.8031255,5.22170843 26.4491216,4.91702093 27.2459966,4.91702093 C27.9608403,4.91702093 28.5614263,5.20266546 29.0477544,5.77395452 C29.5340825,6.34524358 29.7772466,7.22561468 29.7772466,8.4150678 C29.7772466,9.59280218 29.5414067,10.4966108 29.069727,11.1264936 C28.5980473,11.7563764 27.9959966,12.0713178 27.2635747,12.0713178 Z M35.2000981,13.1172162 L35.2000981,7.70315374 C35.2000981,7.03518499 35.4139653,6.44485296 35.8416997,5.93215764 C36.2694341,5.41946233 36.8817388,5.16311468 37.6786138,5.16311468 C37.7723638,5.16311468 37.8587895,5.16604436 37.9378911,5.17190374 C38.0169927,5.17776311 38.1034184,5.18948186 38.1971684,5.20705999 L38.1971684,5.20705999 L38.1971684,3.53713811 C38.0272466,3.51955999 37.9071294,3.50784124 37.8368169,3.50198186 C37.7665044,3.49612249 37.7166997,3.4931928 37.6874028,3.4931928 C37.0604497,3.4931928 36.5067388,3.72024358 36.02627,4.17434514 C35.5458013,4.62844671 35.2440434,5.01370061 35.1209966,5.33010686 L35.1209966,5.33010686 L35.1209966,3.7041303 L33.6180669,3.7041303 L33.6180669,13.1172162 L35.2000981,13.1172162 Z M43.1541997,13.4599897 C44.7069341,13.4599897 45.8524419,12.9648725 46.5907231,11.9746381 C47.3290044,10.9844037 47.698145,9.73049749 47.698145,8.21291936 C47.698145,6.64260686 47.2791997,5.45315374 46.4413091,4.64455999 C45.6034184,3.83596624 44.5780278,3.43166936 43.3651372,3.43166936 C42.0116216,3.43166936 40.9334966,3.90041936 40.1307622,4.83791936 C39.3280278,5.77541936 38.9266606,7.03518499 38.9266606,8.61721624 C38.9266606,10.0937787 39.30752,11.2700483 40.0692388,12.1460248 C40.8309575,13.0220014 41.8592778,13.4599897 43.1541997,13.4599897 Z M43.3036138,12.097685 C42.3485356,12.097685 41.65127,11.7637006 41.2118169,11.0957319 C40.7723638,10.4277631 40.5526372,9.59280218 40.5526372,8.59084905 C40.5526372,7.5478803 40.7723638,6.6572553 41.2118169,5.91897405 C41.65127,5.1806928 42.354395,4.81155218 43.3211919,4.81155218 C44.4110356,4.81155218 45.1786138,5.24514593 45.6239263,6.11233343 C45.9051763,6.66311468 46.0458013,7.37795843 46.0458013,8.25686468 C46.0458013,9.22952093 45.850977,10.1128217 45.4613286,10.906767 C45.0716802,11.7007123 44.3524419,12.097685 43.3036138,12.097685 Z M51.1874028,1.99905218 L51.1874028,0.206083425 L49.5790044,0.206083425 L49.5790044,1.99905218 L51.1874028,1.99905218 Z M51.1874028,13.1172162 L51.1874028,3.74807561 L49.5790044,3.74807561 L49.5790044,13.1172162 L51.1874028,13.1172162 Z M56.7860356,13.4512006 C57.4364263,13.4512006 58.0135747,13.3222944 58.5174809,13.0644819 C59.0213872,12.8066694 59.4579106,12.3877241 59.8270513,11.8076459 L59.8270513,11.8076459 L59.8270513,13.1172162 L61.2508794,13.1172162 L61.2508794,0.162138113 L59.7303716,0.162138113 L59.7303716,4.91702093 C59.3729497,4.4775678 59.0536138,4.16995061 58.7723638,3.99416936 C58.2860356,3.68948186 57.68252,3.53713811 56.9618169,3.53713811 C55.6610356,3.53713811 54.6605473,4.03957952 53.960352,5.04446233 C53.2601567,6.04934514 52.9100591,7.23733343 52.9100591,8.60842718 C52.9100591,10.0732709 53.2938481,11.2466108 54.0614263,12.1284467 C54.8290044,13.0102826 55.7372075,13.4512006 56.7860356,13.4512006 Z M57.2782231,12.0713178 C56.3348638,12.0713178 55.6493169,11.7314741 55.2215825,11.0517866 C54.7938481,10.3720991 54.5799809,9.52834905 54.5799809,8.52053655 C54.5799809,7.3369428 54.8275395,6.44045843 55.3226567,5.83108343 C55.8177739,5.22170843 56.46377,4.91702093 57.260645,4.91702093 C57.9754888,4.91702093 58.5760747,5.20266546 59.0624028,5.77395452 C59.5487309,6.34524358 59.791895,7.22561468 59.791895,8.4150678 C59.791895,9.59280218 59.5560552,10.4966108 59.0843755,11.1264936 C58.6126958,11.7563764 58.010645,12.0713178 57.2782231,12.0713178 Z M66.12002,13.4336225 C66.8465825,13.4336225 67.5116216,13.2783491 68.1151372,12.9678022 C68.7186528,12.6572553 69.1815434,12.2910444 69.5038091,11.8691694 C69.5565434,12.2441694 69.6473638,12.5342084 69.77627,12.7392866 C70.0223638,13.1260053 70.4178716,13.3193647 70.9627934,13.3193647 C71.1854497,13.3193647 71.3612309,13.3105756 71.4901372,13.2929975 C71.6190434,13.2754194 71.8065434,13.2314741 72.0526372,13.1611616 L72.0526372,13.1611616 L72.0526372,11.9922162 C71.9530278,12.0097944 71.8592778,12.022978 71.7713872,12.031767 C71.6834966,12.0405561 71.604395,12.0449506 71.5340825,12.0449506 C71.3172856,12.0449506 71.1751958,11.9951459 71.107813,11.8955366 C71.0404302,11.7959272 71.0067388,11.6640912 71.0067388,11.5000287 L71.0067388,11.5000287 L71.0067388,6.07717718 C71.0067388,5.18655218 70.6639653,4.53030218 69.9784184,4.10842718 C69.2870122,3.68655218 68.3875981,3.47561468 67.2801763,3.47561468 C66.3250981,3.47561468 65.4857427,3.70266546 64.7621098,4.15676702 C64.038477,4.61086858 63.6620122,5.41799749 63.6327153,6.57815374 L63.6327153,6.57815374 L65.1092778,6.57815374 C65.1678716,6.09182561 65.2938481,5.72561468 65.4872075,5.47952093 C65.8329106,5.03420843 66.4188481,4.81155218 67.24502,4.81155218 C67.9598638,4.81155218 68.5091802,4.93313421 68.8929692,5.17629827 C69.2767583,5.41946233 69.4686528,5.81057561 69.4686528,6.34963811 C69.4686528,6.61330999 69.4334966,6.81545843 69.3631841,6.95608343 C69.2401372,7.21389593 68.9969731,7.36623968 68.6336919,7.41311468 L68.6336919,7.41311468 L66.1112309,7.72952093 C65.2264653,7.84084905 64.5116216,8.13674749 63.9666997,8.61721624 C63.4217778,9.09768499 63.1493169,9.7744428 63.1493169,10.6474897 C63.1493169,11.4443647 63.4261723,12.1079389 63.9798833,12.6382123 C64.5335942,13.1684858 65.2469731,13.4336225 66.12002,13.4336225 Z M66.4891606,12.0888959 C66.0321294,12.0888959 65.6366216,11.95706 65.3026372,11.6933881 C64.9686528,11.4297162 64.8016606,11.0693647 64.8016606,10.6123334 C64.8016606,10.0088178 65.0448247,9.56936468 65.5311528,9.29397405 C65.8182622,9.12991155 66.2489263,9.00979436 66.823145,8.93362249 L66.823145,8.93362249 L67.7811528,8.81057561 C68.0741216,8.77541936 68.3729497,8.71682561 68.6776372,8.63479436 C68.9823247,8.55276311 69.2313481,8.45022405 69.4247075,8.32717718 L69.4247075,8.32717718 L69.4247075,9.60159124 C69.4247075,10.5742475 68.9852544,11.2744428 68.1063481,11.7021772 C67.5848638,11.9599897 67.0458013,12.0888959 66.4891606,12.0888959 Z M75.0584966,16.8701459 L75.0584966,12.0625287 C75.4041997,12.4902631 75.7176763,12.7920209 75.9989263,12.9678022 C76.479395,13.2783491 77.0741216,13.4336225 77.7831059,13.4336225 C78.6854497,13.4336225 79.4764653,13.1553022 80.1561528,12.5986616 C81.2284184,11.7197553 81.7645513,10.2549116 81.7645513,8.2041303 C81.7645513,6.68655218 81.3924809,5.51907171 80.6483403,4.70168889 C79.9041997,3.88430608 78.9989263,3.47561468 77.93252,3.47561468 C77.2118169,3.47561468 76.5848638,3.65139593 76.0516606,4.00295843 C75.6766606,4.23733343 75.3309575,4.56838811 75.0145513,4.99612249 L75.0145513,4.99612249 L75.0145513,3.74807561 L73.4764653,3.74807561 L73.4764653,16.8701459 L75.0584966,16.8701459 Z M77.5721684,12.0537397 C76.4823247,12.0537397 75.7323247,11.5674116 75.3221684,10.5947553 C75.1053716,10.0849897 74.9969731,9.46682561 74.9969731,8.74026311 C74.9969731,7.83791936 75.1053716,7.09377874 75.3221684,6.50784124 C75.7264653,5.41213811 76.4764653,4.86428655 77.5721684,4.86428655 C78.6620122,4.86428655 79.4120122,5.38284124 79.8221684,6.41995061 C80.0389653,6.95901311 80.1473638,7.60354436 80.1473638,8.35354436 C80.1473638,9.58401311 79.9027348,10.5083295 79.413477,11.1264936 C78.9242192,11.7446576 78.3104497,12.0537397 77.5721684,12.0537397 Z" id="path-1"></path>
    </defs>
    <g id="页面-1" stroke="none" stroke-width="1" fill="none" fill-rule="evenodd">
        <g id="投屏" transform="translate(-1352.000000, -281.000000)">
            <g id="connect-androidap" transform="translate(1344.066484, 268.500000)">
                <g id="编组" transform="translate(42.875657, 13.000000)">
                    <g transform="translate(13.953815, 48.331248)" fill="#979797" fill-rule="nonzero" id="椭圆形">
                        <circle cx="1.99289466" cy="1.99289466" r="1.99289466"></circle>
                        <circle cx="11.4591443" cy="1.99289466" r="1.99289466"></circle>
                        <circle cx="20.9253939" cy="1.99289466" r="1.99289466"></circle>
                    </g>
                    <g transform="translate(13.953815, 119.577232)" fill="#979797" fill-rule="nonzero" id="椭圆形">
                        <circle cx="1.99289466" cy="1.99289466" r="1.99289466"></circle>
                        <circle cx="11.4591443" cy="1.99289466" r="1.99289466"></circle>
                        <circle cx="20.9253939" cy="1.99289466" r="1.99289466"></circle>
                    </g>
                    <g transform="translate(13.953815, 144.986639)" fill="#979797" fill-rule="nonzero" id="椭圆形">
                        <circle cx="1.99289466" cy="1.99289466" r="1.99289466"></circle>
                        <circle cx="11.4591443" cy="1.99289466" r="1.99289466"></circle>
                        <circle cx="20.9253939" cy="1.99289466" r="1.99289466"></circle>
                    </g>
                    <path d="M211.750387,131.0346 L211.750387,132.0346 L0.5,132.0346 L0.5,131.0346 L211.750387,131.0346 Z M211.750387,59.7886161 L211.750387,60.7886161 L0.5,60.7886161 L0.5,59.7886161 L211.750387,59.7886161 Z M211.750387,34.3792092 L211.750387,35.3792092 L0.5,35.3792092 L0.5,34.3792092 L211.750387,34.3792092 Z" id="形状" fill="#979797" fill-rule="nonzero"></path>
                    <path d="M191.524217,0.25 C203.375517,0.25 213.005297,9.76126698 213.196707,21.5669511 L213.199611,21.9253939 L213.199611,173.056062 C213.199611,173.470276 212.863824,173.806062 212.449611,173.806062 C212.069915,173.806062 211.75612,173.523908 211.706457,173.157833 L211.699611,173.056062 L211.699611,21.9253939 C211.699611,10.8988799 202.854003,1.93841249 191.871728,1.75293254 L191.524217,1.75 L22.1281709,1.75 C11.101977,1.75 2.14119619,10.5957791 1.95570968,21.5778882 L1.95277703,21.9253939 L1.95277703,173.056062 C1.95277703,173.470276 1.61699059,173.806062 1.20277703,173.806062 C0.823081266,173.806062 0.509286071,173.523908 0.459623648,173.157833 L0.452777032,173.056062 L0.452777032,21.9253939 C0.452777032,10.0742619 9.96436638,0.444317699 21.7697378,0.252903928 L22.1281709,0.25 L191.524217,0.25 Z" id="路径" fill="#FFFFFF" fill-rule="nonzero"></path>
                    <g transform="translate(182.851638, 42.850788)" id="形状">
                        <path d="M0,0 L14.3488415,0 L14.3488415,14.3488415 L0,14.3488415 L0,0 Z M0,0 L14.3488415,0 L14.3488415,14.3488415 L0,14.3488415 L0,0 Z"></path>
                        <path d="M1.14840555,5.74103129 C1.45331843,6.04594417 1.93759183,6.07583759 2.26641945,5.80081813 C5.05846487,3.50500348 9.1120126,3.50500348 11.9100367,5.79483944 C12.244843,6.06985891 12.7350951,6.04594417 13.040008,5.74103129 C13.3927503,5.38828893 13.3688356,4.8023779 12.9802211,4.48550765 C9.56639259,1.69346224 4.62799962,1.69346224 1.20819239,4.48550765 C0.819577928,4.79639922 0.789684509,5.38231025 1.14840555,5.74103129 L1.14840555,5.74103129 Z M7.17442077,11.6584338 C7.83456713,11.6584338 8.37015757,11.1228433 8.37015757,10.462697 C8.37015757,9.8025506 7.83456713,9.26696016 7.17442077,9.26696016 C6.51427442,9.26696016 5.97868398,9.8025506 5.97868398,10.462697 C5.97868398,11.1228433 6.51427442,11.6584338 7.17442077,11.6584338 Z M3.55731697,8.15044093 C3.8507707,8.44339645 4.31112937,8.47328987 4.65191436,8.22816382 C6.11071325,7.19385149 8.07172159,7.19385149 9.53052048,8.22816382 C9.87130547,8.46731118 10.3316641,8.44339645 10.6246197,8.15044093 L10.6305983,8.14446225 C10.9893194,7.78574121 10.9654046,7.17591544 10.5528754,6.88295993 C8.49620815,5.39426762 5.69220537,5.39426762 3.6295594,6.88295993 C3.2170302,7.18189413 3.19311547,7.78574121 3.55781519,8.15044093 L3.55731697,8.15044093 Z" fill="#979797" fill-rule="nonzero"></path>
                    </g>
                    <g transform="translate(182.851638, 112.602101)" id="形状">
                        <path d="M0,0 L14.3488415,0 L14.3488415,14.3488415 L0,14.3488415 L0,0 Z M0,0 L14.3488415,0 L14.3488415,14.3488415 L0,14.3488415 L0,0 Z"></path>
                        <path d="M1.14840555,5.74103129 C1.45331843,6.04594417 1.93759183,6.07583759 2.26641945,5.80081813 C5.05846487,3.50500348 9.1120126,3.50500348 11.9100367,5.79483944 C12.244843,6.06985891 12.7350951,6.04594417 13.040008,5.74103129 C13.3927503,5.38828893 13.3688356,4.8023779 12.9802211,4.48550765 C9.56639259,1.69346224 4.62799962,1.69346224 1.20819239,4.48550765 C0.819577928,4.79639922 0.789684509,5.38231025 1.14840555,5.74103129 L1.14840555,5.74103129 Z M7.17442077,11.6584338 C7.83456713,11.6584338 8.37015757,11.1228433 8.37015757,10.462697 C8.37015757,9.8025506 7.83456713,9.26696016 7.17442077,9.26696016 C6.51427442,9.26696016 5.97868398,9.8025506 5.97868398,10.462697 C5.97868398,11.1228433 6.51427442,11.6584338 7.17442077,11.6584338 Z M3.55731697,8.15044093 C3.8507707,8.44339645 4.31112937,8.47328987 4.65191436,8.22816382 C6.11071325,7.19385149 8.07172159,7.19385149 9.53052048,8.22816382 C9.87130547,8.46731118 10.3316641,8.44339645 10.6246197,8.15044093 L10.6305983,8.14446225 C10.9893194,7.78574121 10.9654046,7.17591544 10.5528754,6.88295993 C8.49620815,5.39426762 5.69220537,5.39426762 3.6295594,6.88295993 C3.2170302,7.18189413 3.19311547,7.78574121 3.55781519,8.15044093 L3.55731697,8.15044093 Z" fill="#979797" fill-rule="nonzero"></path>
                    </g>
                    <g transform="translate(182.851638, 140.004402)" id="形状">
                        <path d="M0,0 L14.3488415,0 L14.3488415,14.3488415 L0,14.3488415 L0,0 Z M0,0 L14.3488415,0 L14.3488415,14.3488415 L0,14.3488415 L0,0 Z"></path>
                        <path d="M1.14840555,5.74103129 C1.45331843,6.04594417 1.93759183,6.07583759 2.26641945,5.80081813 C5.05846487,3.50500348 9.1120126,3.50500348 11.9100367,5.79483944 C12.244843,6.06985891 12.7350951,6.04594417 13.040008,5.74103129 C13.3927503,5.38828893 13.3688356,4.8023779 12.9802211,4.48550765 C9.56639259,1.69346224 4.62799962,1.69346224 1.20819239,4.48550765 C0.819577928,4.79639922 0.789684509,5.38231025 1.14840555,5.74103129 L1.14840555,5.74103129 Z M7.17442077,11.6584338 C7.83456713,11.6584338 8.37015757,11.1228433 8.37015757,10.462697 C8.37015757,9.8025506 7.83456713,9.26696016 7.17442077,9.26696016 C6.51427442,9.26696016 5.97868398,9.8025506 5.97868398,10.462697 C5.97868398,11.1228433 6.51427442,11.6584338 7.17442077,11.6584338 Z M3.55731697,8.15044093 C3.8507707,8.44339645 4.31112937,8.47328987 4.65191436,8.22816382 C6.11071325,7.19385149 8.07172159,7.19385149 9.53052048,8.22816382 C9.87130547,8.46731118 10.3316641,8.44339645 10.6246197,8.15044093 L10.6305983,8.14446225 C10.9893194,7.78574121 10.9654046,7.17591544 10.5528754,6.88295993 C8.49620815,5.39426762 5.69220537,5.39426762 3.6295594,6.88295993 C3.2170302,7.18189413 3.19311547,7.78574121 3.55781519,8.15044093 L3.55731697,8.15044093 Z" fill="#979797" fill-rule="nonzero"></path>
                    </g>
                </g>
                <g id="编组" transform="translate(8.000000, 81.754866)" fill-rule="nonzero">
                    <rect id="矩形" fill-opacity="0.1" fill="#FFFFFF" x="1" y="1" width="281.496371" height="38.3632222" rx="1.5"></rect>
                    <path d="M280.996371,0.5 L2.5,0.5 C1.3954305,0.5 0.5,1.3954305 0.5,2.5 L0.5,37.8632222 C0.5,38.9677917 1.3954305,39.8632222 2.5,39.8632222 L280.996371,39.8632222 C282.10094,39.8632222 282.996371,38.9677917 282.996371,37.8632222 L282.996371,2.5 C282.996371,1.3954305 282.10094,0.5 280.996371,0.5 Z M2.5,1.5 L280.996371,1.5 C281.548655,1.5 281.996371,1.94771525 281.996371,2.5 L281.996371,37.8632222 C281.996371,38.4155069 281.548655,38.8632222 280.996371,38.8632222 L2.5,38.8632222 C1.94771525,38.8632222 1.5,38.4155069 1.5,37.8632222 L1.5,2.5 C1.5,1.94771525 1.94771525,1.5 2.5,1.5 Z" id="矩形" fill="#FFFFFF"></path>
                    <g transform="translate(58.793945, 14.432502)" id="Androidap">
                        <g>
                            <use fill="#000000" xlink:href="#path-1"></use>
                            <use fill="#FFFFFF" xlink:href="#path-1"></use>
                        </g>
                    </g>
                    <g transform="translate(231.681109, 12.469802)" fill="#FFFFFF" id="形状">
                        <path d="M0.913178873,6.56838548 C1.42136701,7.07657362 2.22848935,7.12639599 2.77653538,6.66803021 C7.42994441,2.84167247 14.1858573,2.84167247 18.8492308,6.65806574 C19.4072413,7.11643151 20.2243281,7.07657362 20.7325163,6.56838548 C21.3204202,5.98048156 21.2805623,5.00396317 20.6328715,4.47584609 C14.9431573,-0.177562939 6.71250233,-0.177562939 1.01282361,4.47584609 C0.365132841,4.9939987 0.315310475,5.97051708 0.913178873,6.56838548 Z M10.957368,16.4307229 C12.0584423,16.4307229 12.9502626,15.5389026 12.9502626,14.4378283 C12.9502626,13.336754 12.0584423,12.4449336 10.957368,12.4449336 C9.85629365,12.4449336 8.96447329,13.336754 8.96447329,14.4378283 C8.96447329,15.5389026 9.85629365,16.4307229 10.957368,16.4307229 Z M4.92886161,10.5840682 C5.4171208,11.0723274 6.18438525,11.1221498 6.75236022,10.7136064 C9.18369171,8.98975249 12.4520389,8.98975249 14.8833704,10.7136064 C15.4513454,11.1121853 16.2186099,11.0723274 16.706869,10.5840682 L16.7168335,10.5741037 C17.3147019,9.97623535 17.274844,8.95985907 16.5872954,8.47159988 C13.1595166,5.99044603 8.48617858,5.99044603 5.04843529,8.47159988 C4.36088663,8.96982354 4.32102874,9.97623535 4.92886161,10.5840682 L4.92886161,10.5840682 Z"></path>
                    </g>
                    <path d="M43.3160373,14.9688678 C43.6070636,14.6741195 44.0819277,14.6711022 44.376676,14.9621285 C44.644629,15.2266979 44.671482,15.6431994 44.4554975,15.9381891 L44.3834153,16.0227673 L34.8000831,25.7286625 C34.5323516,25.9998181 34.1098273,26.0236393 33.814887,25.8007143 L33.7305148,25.726435 L28.364646,20.2464729 C28.0748499,19.9505149 28.0798451,19.4756675 28.375803,19.1858714 C28.6448557,18.9224204 29.0617509,18.9025986 29.3530546,19.1235295 L29.4364045,19.1970284 L34.268,24.131 L43.3160373,14.9688678 Z" id="路径" fill="#FFFFFF"></path>
                </g>
            </g>
        </g>
    </g>
</svg>