<?xml version="1.0" encoding="UTF-8"?>
<svg width="33px" height="33px" viewBox="0 0 33 33" version="1.1" xmlns="http://www.w3.org/2000/svg" xmlns:xlink="http://www.w3.org/1999/xlink">
    <!-- Generator: Sketch 63 (92445) - https://sketch.com -->
    <title>q-rcode-deault (1)</title>
    <desc>Created with Sketch.</desc>
    <g id="页面-1" stroke="none" stroke-width="1" fill="none" fill-rule="evenodd">
        <g id="投屏" transform="translate(-546.000000, -501.000000)">
            <g id="q-rcode-deault-(1)" transform="translate(546.750000, 500.500000)">
                <rect id="矩形" fill="#000000" fill-rule="nonzero" opacity="0.2" x="4" y="5" width="24" height="24" rx="1.575"></rect>
                <path d="M25,7.5 L18,7.5 C17.724,7.5 17.5,7.724 17.5,8 C17.5,8.276 17.724,8.5 18,8.5 L23.795,8.5 L17.61,14.68 C17.515,14.774 17.462,14.9015 17.462,15.035 C17.462,15.1685 17.5155,15.296 17.61,15.39 C17.7045,15.4835 17.832,15.536 17.965,15.535014 C18.098,15.536 18.2255,15.4835 18.32,15.39 L24.5,9.205 L24.5,15 C24.5,15.276 24.724,15.5 25,15.5 C25.276,15.5 25.5,15.276 25.5,15 L25.5,8 C25.5,7.724 25.276,7.5 25,7.5 Z M14,25.5 L8.205,25.5 L14.39,19.32 C14.586,19.124 14.586,18.806 14.39,18.61 C14.194,18.414 13.876,18.414 13.68,18.61 L7.5,24.795 L7.5,19 C7.5,18.724 7.276,18.5 7,18.5 C6.724,18.5 6.5,18.724 6.5,19 L6.5,26 C6.5,26.276 6.724,26.5 7,26.5 L14,26.5 C14.276,26.5 14.5,26.276 14.5,26 C14.5,25.724 14.276,25.5 14,25.5 Z" id="形状" stroke="#FFFFFF" stroke-width="0.5" fill="#FFFFFF" fill-rule="nonzero"></path>
                <rect id="矩形" stroke="#FFFFFF" stroke-width="1.15" stroke-linecap="round" x="4" y="5" width="24" height="24" rx="1.575"></rect>
            </g>
        </g>
    </g>
</svg>