<?xml version="1.0" encoding="UTF-8"?>
<svg width="301px" height="201px" viewBox="0 0 301 201" version="1.1" xmlns="http://www.w3.org/2000/svg" xmlns:xlink="http://www.w3.org/1999/xlink">
    <!-- Generator: Sketch 63 (92445) - https://sketch.com -->
    <title>screen-mirror</title>
    <desc>Created with Sketch.</desc>
    <g id="页面-1" stroke="none" stroke-width="1" fill="none" fill-rule="evenodd">
        <g id="投屏" transform="translate(-1344.000000, -572.000000)">
            <g id="screen-mirror" transform="translate(1343.243651, 571.849071)">
                <path d="M43.2060301,187.81632 L43.2060301,34.2610954 C43.2060301,22.5188962 52.7254325,13 64.4671256,13 L236.580755,13 C248.322954,13 257.841851,22.5188962 257.841851,34.2610954 L257.841851,187.81632 L257.841851,187.81632" id="路径" stroke="#FFFFFF" stroke-width="1.5" stroke-linecap="round" stroke-linejoin="round"></path>
                <polyline id="路径" stroke="#979797" stroke-width="1.5" points="141.512273 37.738297 152.488061 43.8893344 163.684052 37.738297"></polyline>
                <g id="编组" transform="translate(66.285962, 83.364102)" stroke="#FFFFFF">
                    <rect id="矩形" fill-opacity="0.1" fill="#FFFFFF" fill-rule="nonzero" x="0" y="0" width="168.570114" height="64.2895028" rx="10.5"></rect>
                    <rect id="矩形" stroke-width="1.3985" stroke-linecap="round" x="26.9899482" y="27.5138823" width="21.877161" height="15.6243741" rx="0.932"></rect>
                    <path d="M43.1382564,25.168581 L43.1382564,22.3039015 C43.1382564,21.7278271 42.6715247,21.2610954 42.0954503,21.2610954 L22.3039015,21.2610954 C21.7278271,21.2610954 21.2610954,21.7278271 21.2610954,22.3039015 L21.2610954,35.8472193 C21.2636265,36.4217751 21.729852,36.8854695 22.3039015,36.8854695 L24.6633769,36.8854695" id="路径" stroke-width="1.3985" stroke-linecap="round"></path>
                </g>
                <path d="M153.495938,173.022647 L157.108299,173.022647 C160.666495,173.022647 163.553955,170.1443 163.565091,166.586104 C163.590402,158.27909 163.582809,153.805654 163.541299,153.164784 C163.526113,152.926862 163.476503,152.695521 163.392978,152.469749 C163.101397,151.683594 162.227667,151.282165 161.441007,151.573745 C161.334701,151.61323 161.232445,151.664864 161.137277,151.726623 L160.05448,152.435326 L160.05448,152.435326 L159.156451,151.721561 C158.616824,151.292795 157.856993,151.281152 157.304711,151.691694 L156.305946,152.435326 L156.305946,152.435326 L155.203406,151.709411 C154.541275,151.274065 153.685769,151.264447 153.014526,151.685619 L151.819855,152.43482 L151.819855,152.43482 C151.865414,147.34785 151.811755,144.38547 151.657865,143.547682 C151.531818,142.859227 151.118745,142.407682 150.419154,142.19254 L150.419154,142.19254 C149.400646,141.878686 148.320886,142.450204 148.007032,143.468206 C147.998932,143.495035 147.991845,143.520852 147.984758,143.547682 C147.984758,143.547682 147.984758,143.547682 147.984758,143.547682 C147.831375,144.132362 147.831375,149.525087 147.984758,159.725857 L145.012761,156.535174 C144.460985,155.9429 143.541695,155.887217 142.922593,156.40862 L142.69682,156.599463 C142.128845,157.078344 141.990142,157.897403 142.369804,158.536248 L149.460379,170.47739 L149.460379,170.47739 C150.202999,172.032488 151.772777,173.022647 153.495938,173.022647 L153.495938,173.022647 Z" id="路径" stroke="#FFFFFF" stroke-width="0.5" fill="#FFFFFF" fill-rule="nonzero" stroke-linecap="round" stroke-linejoin="round"></path>
            </g>
        </g>
    </g>
</svg>